inDegrees=yes
name=ik_lifting_orientations
DataType=double
version=3
OpenSimVersion=4.5-2024-01-10-34fd6af
endheader
time	pelvis_tilt	pelvis_list	pelvis_rotation	pelvis_tx	pelvis_ty	pelvis_tz	hip_flexion_r	hip_adduction_r	hip_rotation_r	knee_angle_r	knee_angle_r_beta	ankle_angle_r	subtalar_angle_r	mtp_angle_r	hip_flexion_l	hip_adduction_l	hip_rotation_l	knee_angle_l	knee_angle_l_beta	ankle_angle_l	subtalar_angle_l	mtp_angle_l	lumbar_extension	lumbar_bending	lumbar_rotation	arm_flex_r	arm_add_r	arm_rot_r	elbow_flex_r	pro_sup_r	wrist_flex_r	wrist_dev_r	arm_flex_l	arm_add_l	arm_rot_l	elbow_flex_l	pro_sup_l	wrist_flex_l	wrist_dev_l
5.25	2.774860222026799	0.5288163218735664	-90.85541556756262	0	0.9400000003403366	0	44.9992599549311	-9.99999999226636	0	59.99478200772953	1.047106480051134	-4.999999851053881	0	0	44.9992599549311	-9.99999999226636	0	59.99478200772953	1.047106480051134	-4.999999851053881	0	0	-34.9156593801863	20.44300222292644	40.02077291992713	17.04141119012469	-38.62723834934111	-27.76199099739608	0.4660945406464293	-0.0749985314770136	0	0	0	-14.81630424349623	0	75.00521380935231	0.07478825648091775	0	0
5.26	2.771134639653852	0.5282615256177196	-90.86149612458074	0	0.9400000003403366	0	44.99926014851638	-9.999999992262993	0	59.9947831103815	1.047106499296042	-4.999999851053874	0	0	44.99926014851638	-9.999999992262993	0	59.9947831103815	1.047106499296042	-4.999999851053874	0	0	-34.88859119429189	21.46972145750936	39.5646915452509	16.82066137631222	-39.22658325321311	-26.98094121255674	0.5197914180745246	-0.07498489109513812	0	0	0	-14.81632888124014	0	75.00521249171027	0.0747746160989491	0	0
5.27	2.785508058206193	0.5341005313457905	-90.85878449986623	0	0.9400000003403366	0	44.99926067920649	-9.999999992253729	0	59.9947861202288	1.047106551827787	-4.999999851053851	0	0	44.99926067920649	-9.999999992253729	0	59.9947861202288	1.047106551827787	-4.999999851053851	0	0	-36.80042411092084	22.27072783512685	39.6692598006885	18.65120498955129	-40.72313986774313	-25.50141809732352	0.4900475040483713	-0.07494755579874104	0	0	0	-14.81639622649637	0	75.00520887955793	0.07473728080230441	0	0
5.28	2.769577606082006	0.5282165175490331	-90.87286234879667	0	0.9400000003403366	0	44.99926098767531	-9.999999992248361	0	59.99478787204676	1.047106582402779	-4.999999851053841	0	0	44.99926098767531	-9.999999992248361	0	59.99478787204676	1.047106582402779	-4.999999851053841	0	0	-37.89572625481304	22.28617510939101	39.95537013504053	19.69274857463733	-41.28941548158242	-25.05517941071414	0.5055343926308825	-0.07492584041896926	0	0	0	-14.81643541602756	0	75.00520677995908	0.07471556542238368	0	0
5.29	2.762070389597062	0.5353433826563622	-90.86224188319842	0	0.9400000003403366	0	44.99926123967439	-9.999999992243991	0	59.99478930590072	1.047106607428251	-4.999999851053833	0	0	44.99926123967439	-9.999999992243991	0	59.99478930590072	1.047106607428251	-4.999999851053833	0	0	-37.86151364786137	23.32173807110324	39.45028977997084	19.63757941696552	-41.85237274425596	-24.10745835416221	0.5184280332947008	-0.07490808579562237	0	0	0	-14.81646747911456	0	75.00520506472269	0.07469781079891766	0	0
5.3	2.772295596310719	0.5287810504247793	-90.87370891538706	0	0.9400000003403366	0	44.99926168650774	-9.999999992236225	0	59.99479184201013	1.04710665169171	-4.99999985105382	0	0	44.99926168650774	-9.999999992236225	0	59.99479184201013	1.04710665169171	-4.99999985105382	0	0	-38.98904067058706	24.31134405597269	39.19056360851403	20.90226782361752	-42.9463877545022	-22.48906828973838	0.491260848359709	-0.07487663128021366	0	0	0	-14.81652423934388	0	75.00520202334303	0.07466635628329192	0	0
5.31	2.788820975030758	0.5248208523984079	-90.87674382204482	0	0.9400000003403366	0	44.9992622191043	-9.999999992226975	0	59.99479486354157	1.047106704427383	-4.999999851053799	0	0	44.9992622191043	-9.999999992226975	0	59.99479486354157	1.047106704427383	-4.999999851053799	0	0	-40.37165132663766	24.93022662659671	39.69336960970011	21.97675690534165	-44.11899834502078	-21.75098186758683	0.4911304147370708	-0.07483914038240916	0	0	0	-14.81659188754705	0	75.00519839821466	0.07462886538522881	0	0
5.32	2.766517706198368	0.5301768035306971	-90.87176370184159	0	0.9400000003403366	0	44.99926259436005	-9.999999992220477	0	59.99479699496608	1.047106741627758	-4.999999851053786	0	0	44.99926259436005	-9.999999992220477	0	59.99479699496608	1.047106741627758	-4.999999851053786	0	0	-41.7628517088778	25.60409724207466	40.28306717612648	23.00575576747854	-45.32109974082923	-21.05603660210868	0.5071277113367822	-0.0748127093596352	0	0	0	-14.81663960120356	0	75.00519584402949	0.07460243436226865	0	0
5.33	2.781926335831682	0.5432439924280473	-90.87157351228308	0	0.9400000003403366	0	44.99926303805254	-9.99999999221281	0	59.99479951480582	1.047106785607258	-4.999999851053767	0	0	44.99926303805254	-9.99999999221281	0	59.99479951480582	1.047106785607258	-4.999999851053767	0	0	-43.37549633265279	25.77625809679376	41.52709391640778	23.95125094687264	-46.55136642306432	-21.13152777792264	0.494015562730461	-0.07478145543394042	0	0	0	-14.81669602253229	0	75.00519282402803	0.07457118043635283	0	0
5.34	2.780844087690931	0.5299860934872249	-90.84496960740286	0	0.9400000003403366	0	44.99926350448469	-9.999999992204756	0	59.99480216332091	1.047106831832567	-4.999999851053749	0	0	44.99926350448469	-9.999999992204756	0	59.99480216332091	1.047106831832567	-4.999999851053749	0	0	-43.39918519738478	26.82822434791946	41.05278545673226	24.06595396045775	-47.08414643800981	-20.04573390255511	0.4988364937112901	-0.07474859779257714	0	0	0	-14.81675533987183	0	75.00518964924865	0.07453832279476245	0	0
5.35	2.763126934009402	0.5057929656596162	-90.8844628208506	0	0.9400000003403366	0	44.99927715279897	-9.999999991998639	0	59.99488048301162	1.047108198769039	-4.999999851053288	0	0	44.99927715279897	-9.999999991998639	0	59.99488048301162	1.047108198769039	-4.999999851053288	0	0	-43.462328145843	26.81020609660622	41.1207019198284	23.98100566253913	-47.08659287024029	-20.12769286071139	0.619215598740515	-0.07376998694884	0	0	0	-14.81854090252937	0	75.00509675171371	0.07355971194426864	0	0
5.36	2.781439525648626	0.5321817829178921	-90.8513024484626	0	0.9400000003403366	0	44.99927792127745	-9.999999991985893	0	59.99488486006904	1.047108275163102	-4.999999851053262	0	0	44.99927792127745	-9.999999991985893	0	59.99488486006904	1.047108275163102	-4.999999851053262	0	0	-45.10177556629585	28.01003282728968	41.92515040244307	25.23436308504357	-48.82974520041441	-18.96000905471589	0.4902745607529151	-0.07371556034703146	0	0	0	-14.81863947498395	0	75.00509152105012	0.07350528534208869	0	0
5.37	2.763861578052233	0.5245699438569446	-90.88260905761446	0	0.9400000003403366	0	44.99927833736687	-9.999999991979005	0	59.99488723194469	1.047108316560142	-4.999999851053247	0	0	44.99927833736687	-9.999999991979005	0	59.99488723194469	1.047108316560142	-4.999999851053247	0	0	-46.27952397765251	27.9956378272453	42.32929814627109	26.46877443060574	-49.3654351820077	-18.30526617456882	0.5051990352127238	-0.07368607656578006	0	0	0	-14.81869289257331	0	75.00508868892939	0.073475801560634	0	0
5.38	2.757535859225507	0.518015679933319	-90.89210543871665	0	0.9400000003403366	0	44.99927871713123	-9.99999999197273	0	59.99488939815596	1.047108354367661	-4.999999851053236	0	0	44.99927871713123	-9.99999999197273	0	59.99488939815596	1.047108354367661	-4.999999851053236	0	0	-47.48149033679648	27.96459935048032	42.68278057054488	27.83976014136635	-49.88664909530179	-17.53576460338117	0.5181935240005943	-0.07365915665736179	0	0	0	-14.81874167840802	0	75.00508610405554	0.07344888165202852	0	0
5.39	2.777411895953402	0.5363110823532489	-90.86584260327622	0	0.9400000003403366	0	44.99927903513689	-9.999999991967487	0	59.99489121463807	1.047108386071254	-4.999999851053225	0	0	44.99927903513689	-9.999999991967487	0	59.99489121463807	1.047108386071254	-4.999999851053225	0	0	-48.19110125030284	28.78341886237767	43.38127242759317	27.97258016380832	-50.97368346114213	-17.27623551243249	0.5120049949826736	-0.07363659987412094	0	0	0	-14.81878257815037	0	75.00508393954354	0.07342632486862778	0	0
5.4	2.781330720428782	0.5347767816538772	-90.86237829171199	0	0.9400000003403366	0	44.99927941525296	-9.999999991961225	0	59.9948933849639	1.047108423950586	-4.999999851053216	0	0	44.99927941525296	-9.999999991961225	0	59.9948933849639	1.047108423950586	-4.999999851053216	0	0	-49.00479461542678	29.58067477645004	44.17986928607136	28.12029538211329	-52.11415671354783	-17.04817579642812	0.5002054851624801	-0.07360963903489205	0	0	0	-14.81883145907123	0	75.00508135227594	0.07339936402921177	0	0
5.41	2.775190546847893	0.5351273350952874	-90.86928728437682	0	0.9400000003403366	0	44.99928011576606	-9.999999991949695	0	59.99489737780909	1.047108493638881	-4.999999851053193	0	0	44.99928011576606	-9.999999991949695	0	59.99489737780909	1.047108493638881	-4.999999851053193	0	0	-50.80764373136362	30.68701871056208	45.19805953223032	29.53605722792489	-53.81170219702138	-15.68389394395722	0.496712626098374	-0.07355997794544644	0	0	0	-14.81892145357318	0	75.00507658422005	0.07334970293942854	0	0
5.42	2.770263274384734	0.5315091425294123	-90.86726267388309	0	0.9400000003403366	0	44.99928084712205	-9.999999991937683	0	59.99490154546267	1.047108566378158	-4.999999851053171	0	0	44.99928084712205	-9.999999991937683	0	59.99490154546267	1.047108566378158	-4.999999851053171	0	0	-52.01534902863629	30.63567172982676	45.54612633757263	31.1249546134999	-54.27572021972914	-14.66985190540334	0.4944126320314487	-0.07350812416653954	0	0	0	-14.81901542453155	0	75.00507160623103	0.07329784916016067	0	0
5.43	2.78123372753724	0.5274291471401598	-90.86569366648595	0	0.9400000003403366	0	44.99928136355205	-9.999999991929238	0	59.99490449221504	1.047108617808689	-4.999999851053156	0	0	44.99928136355205	-9.999999991929238	0	59.99490449221504	1.047108617808689	-4.999999851053156	0	0	-53.76766083402782	30.65116832696252	46.98754110210083	32.24787932495127	-55.51168625231203	-14.53986716216489	0.507104155547393	-0.07347148276834464	0	0	0	-14.81908186223017	0	75.00506809114	0.07326120776171169	0	0
5.44	2.803736595537448	0.5531800313368535	-90.84849884525376	0	0.9400000003403366	0	44.99928155839861	-9.999999991926067	0	59.99490560916057	1.047108637303066	-4.99999985105315	0	0	44.99928155839861	-9.999999991926067	0	59.99490560916057	1.047108637303066	-4.99999985105315	0	0	-53.70650568456288	32.15445915397682	47.23866036715908	31.61658258504666	-56.52312187948981	-13.97685542293686	0.4858153915095497	-0.07345763201571824	0	0	0	-14.81910701583419	0	75.00506676491304	0.07324735700898539	0	0
5.45	2.771339318351851	0.5444178561681338	-90.87137995338459	0	0.9400000003403366	0	44.99928241200396	-9.999999991912116	0	59.99491047601342	1.047108722245673	-4.999999851053122	0	0	44.99928241200396	-9.999999991912116	0	59.99491047601342	1.047108722245673	-4.999999851053122	0	0	-55.53861413280536	32.12312665321959	48.75075710807573	32.91491571494787	-57.73473747311417	-13.67740458928562	0.4892210233969095	-0.07339706939773527	0	0	0	-14.81921681463927	0	75.00506095483136	0.07318679439058545	0	0
5.46	2.448885394648235	0.2812427373369124	-91.17415640544907	0	0.9400000003403366	0	44.9992832148933	-9.999999991899042	0	59.99491505620011	1.047108802185011	-4.999999851053093	0	0	44.9992832148933	-9.999999991899042	0	59.99491505620011	1.047108802185011	-4.999999851053093	0	0	-57.31419830058708	31.94472799534792	49.65699008378903	34.65815804488661	-58.19237142745023	-12.5115801012945	0.4937150013058908	-0.07334007832752062	0	0	0	-14.8193201705907	0	75.00505548994911	0.0731298033199724	0	0
